<?xml version="1.0" encoding="UTF-8" standalone="no"?>
<!DOCTYPE svg PUBLIC "-//W3C//DTD SVG 1.1//EN"
 "http://www.w3.org/Graphics/SVG/1.1/DTD/svg11.dtd">
<!-- Generated by graphviz version 14.1.2 (0)
 -->
<!-- Title: TSV_Lexer Pages: 1 -->
<svg width="662pt" height="288pt"
 viewBox="0.00 0.00 662.00 288.00" xmlns="http://www.w3.org/2000/svg" xmlns:xlink="http://www.w3.org/1999/xlink">
<g id="graph0" class="graph" transform="scale(1 1) rotate(0) translate(4 283.87)">
<title>TSV_Lexer</title>
<polygon fill="white" stroke="none" points="-4,4 -4,-283.87 657.75,-283.87 657.75,4 -4,4"/>
<text xml:space="preserve" text-anchor="middle" x="326.87" y="-25.2" font-family="Times,serif" font-size="14.00">TSV Lexer</text>
<text xml:space="preserve" text-anchor="middle" x="326.87" y="-7.95" font-family="Times,serif" font-size="14.00">No escaping support</text>
<!-- Start -->
<g id="node1" class="node">
<title>Start</title>
<ellipse fill="none" stroke="black" cx="43.59" cy="-175.59" rx="39.59" ry="39.59"/>
<ellipse fill="none" stroke="black" cx="43.59" cy="-175.59" rx="43.59" ry="43.59"/>
<text xml:space="preserve" text-anchor="middle" x="43.59" y="-170.17" font-family="Arial" font-size="14.00">START</text>
</g>
<!-- Start&#45;&gt;Start -->
<g id="edge1" class="edge">
<title>Start&#45;&gt;Start</title>
<path fill="none" stroke="black" d="M26.68,-216.17C27.26,-228.01 32.9,-237.18 43.59,-237.18 50.6,-237.18 55.44,-233.23 58.1,-227.17"/>
<polygon fill="black" stroke="black" points="61.47,-228.16 60.18,-217.65 54.63,-226.67 61.47,-228.16"/>
<text xml:space="preserve" text-anchor="middle" x="43.59" y="-241.13" font-family="Times,serif" font-size="14.00">nonprinting</text>
</g>
<!-- Collecting -->
<g id="node2" class="node">
<title>Collecting</title>
<ellipse fill="none" stroke="black" cx="249.95" cy="-175.59" rx="69.03" ry="69.03"/>
<text xml:space="preserve" text-anchor="middle" x="249.95" y="-170.17" font-family="Arial" font-size="14.00">COLLECTING</text>
</g>
<!-- Start&#45;&gt;Collecting -->
<g id="edge2" class="edge">
<title>Start&#45;&gt;Collecting</title>
<path fill="none" stroke="black" d="M87.43,-175.59C111.09,-175.59 141.24,-175.59 169.08,-175.59"/>
<polygon fill="black" stroke="black" points="168.91,-179.09 178.91,-175.59 168.91,-172.09 168.91,-179.09"/>
<text xml:space="preserve" text-anchor="middle" x="134.05" y="-179.54" font-family="Times,serif" font-size="14.00">printing</text>
</g>
<!-- Collecting&#45;&gt;Collecting -->
<g id="edge3" class="edge">
<title>Collecting&#45;&gt;Collecting</title>
<path fill="none" stroke="black" d="M233.8,-243.1C236.01,-254.63 241.39,-262.62 249.95,-262.62 255.44,-262.62 259.62,-259.34 262.49,-253.95"/>
<polygon fill="black" stroke="black" points="265.79,-255.13 265.63,-244.54 259.15,-252.92 265.79,-255.13"/>
<text xml:space="preserve" text-anchor="middle" x="249.95" y="-266.57" font-family="Times,serif" font-size="14.00">printing</text>
</g>
<!-- EndField -->
<g id="node3" class="node">
<title>EndField</title>
<ellipse fill="none" stroke="black" cx="594.69" cy="-215.59" rx="55.06" ry="55.06"/>
<ellipse fill="none" stroke="black" cx="594.69" cy="-215.59" rx="59.06" ry="59.06"/>
<text xml:space="preserve" text-anchor="middle" x="594.69" y="-210.17" font-family="Arial" font-size="14.00">ENDFIELD</text>
</g>
<!-- Collecting&#45;&gt;EndField -->
<g id="edge4" class="edge">
<title>Collecting&#45;&gt;EndField</title>
<path fill="none" stroke="black" d="M318.86,-183.59C362.74,-188.74 421.06,-195.59 472.63,-201.59 489.53,-203.56 507.75,-205.67 524.8,-207.65"/>
<polygon fill="black" stroke="black" points="523.97,-211.07 534.3,-208.75 524.77,-204.12 523.97,-211.07"/>
<text xml:space="preserve" text-anchor="middle" x="410.06" y="-203.21" font-family="Times,serif" font-size="14.00">\n, \r</text>
</g>
<!-- IsField -->
<g id="node4" class="node">
<title>IsField</title>
<ellipse fill="none" stroke="black" cx="410.06" cy="-134.59" rx="44.58" ry="44.58"/>
<text xml:space="preserve" text-anchor="middle" x="410.06" y="-129.17" font-family="Arial" font-size="14.00">ISFIELD</text>
</g>
<!-- Collecting&#45;&gt;IsField -->
<g id="edge5" class="edge">
<title>Collecting&#45;&gt;IsField</title>
<path fill="none" stroke="black" d="M317.09,-158.44C329.91,-155.12 343.21,-151.67 355.57,-148.46"/>
<polygon fill="black" stroke="black" points="356.35,-151.88 365.15,-145.98 354.59,-145.1 356.35,-151.88"/>
<text xml:space="preserve" text-anchor="middle" x="342.23" y="-156.59" font-family="Times,serif" font-size="14.00">\t</text>
</g>
<!-- IsField&#45;&gt;EndField -->
<g id="edge6" class="edge">
<title>IsField&#45;&gt;EndField</title>
<path fill="none" stroke="black" d="M451.14,-152.37C474.22,-162.61 503.76,-175.71 529.95,-187.33"/>
<polygon fill="black" stroke="black" points="528.24,-190.4 538.8,-191.25 531.08,-184 528.24,-190.4"/>
<text xml:space="preserve" text-anchor="middle" x="495.13" y="-183.89" font-family="Times,serif" font-size="14.00">\n, \r</text>
</g>
<!-- Field -->
<g id="node5" class="node">
<title>Field</title>
<ellipse fill="none" stroke="black" cx="594.69" cy="-98.59" rx="36.09" ry="36.09"/>
<ellipse fill="none" stroke="black" cx="594.69" cy="-98.59" rx="40.09" ry="40.09"/>
<text xml:space="preserve" text-anchor="middle" x="594.69" y="-93.17" font-family="Arial" font-size="14.00">FIELD</text>
</g>
<!-- IsField&#45;&gt;Field -->
<g id="edge7" class="edge">
<title>IsField&#45;&gt;Field</title>
<path fill="none" stroke="black" d="M454.12,-126.01C460.33,-124.78 466.65,-123.53 472.63,-122.34 496.07,-117.71 522.07,-112.61 543.95,-108.32"/>
<polygon fill="black" stroke="black" points="544.35,-111.81 553.49,-106.45 543,-104.94 544.35,-111.81"/>
<text xml:space="preserve" text-anchor="middle" x="495.13" y="-126.29" font-family="Times,serif" font-size="14.00">other*</text>
</g>
</g>
</svg>
