<?xml version="1.0" encoding="UTF-8" standalone="no"?>
<!DOCTYPE svg PUBLIC "-//W3C//DTD SVG 1.1//EN"
 "http://www.w3.org/Graphics/SVG/1.1/DTD/svg11.dtd">
<!-- Generated by graphviz version 14.1.2 (0)
 -->
<!-- Title: TSV_Lexer Pages: 1 -->
<svg width="515pt" height="288pt"
 viewBox="0.00 0.00 515.00 288.00" xmlns="http://www.w3.org/2000/svg" xmlns:xlink="http://www.w3.org/1999/xlink">
<g id="graph0" class="graph" transform="scale(1 1) rotate(0) translate(4 283.83)">
<title>TSV_Lexer</title>
<polygon fill="white" stroke="none" points="-4,4 -4,-283.83 510.84,-283.83 510.84,4 -4,4"/>
<text xml:space="preserve" text-anchor="middle" x="253.42" y="-25.2" font-family="Times,serif" font-size="14.00">TSV Lexer</text>
<text xml:space="preserve" text-anchor="middle" x="253.42" y="-7.95" font-family="Times,serif" font-size="14.00">No escaping support</text>
<!-- Start -->
<g id="node1" class="node">
<title>Start</title>
<ellipse fill="none" stroke="black" cx="43.59" cy="-175.56" rx="39.59" ry="39.59"/>
<ellipse fill="none" stroke="black" cx="43.59" cy="-175.56" rx="43.59" ry="43.59"/>
<text xml:space="preserve" text-anchor="middle" x="43.59" y="-170.13" font-family="Arial" font-size="14.00">START</text>
</g>
<!-- Start&#45;&gt;Start -->
<g id="edge1" class="edge">
<title>Start&#45;&gt;Start</title>
<path fill="none" stroke="black" d="M26.68,-216.13C27.26,-227.97 32.9,-237.14 43.59,-237.14 50.6,-237.14 55.44,-233.19 58.1,-227.13"/>
<polygon fill="black" stroke="black" points="61.47,-228.12 60.18,-217.61 54.63,-226.63 61.47,-228.12"/>
<text xml:space="preserve" text-anchor="middle" x="43.59" y="-241.09" font-family="Times,serif" font-size="14.00">nonprinting</text>
</g>
<!-- InField -->
<g id="node2" class="node">
<title>InField</title>
<ellipse fill="none" stroke="black" cx="249.95" cy="-175.56" rx="69.03" ry="69.03"/>
<text xml:space="preserve" text-anchor="middle" x="249.95" y="-170.13" font-family="Arial" font-size="14.00">COLLECTING</text>
</g>
<!-- Start&#45;&gt;InField -->
<g id="edge2" class="edge">
<title>Start&#45;&gt;InField</title>
<path fill="none" stroke="black" d="M87.43,-175.56C111.09,-175.56 141.24,-175.56 169.08,-175.56"/>
<polygon fill="black" stroke="black" points="168.91,-179.06 178.91,-175.56 168.91,-172.06 168.91,-179.06"/>
<text xml:space="preserve" text-anchor="middle" x="134.05" y="-179.51" font-family="Times,serif" font-size="14.00">printing</text>
</g>
<!-- InField&#45;&gt;InField -->
<g id="edge3" class="edge">
<title>InField&#45;&gt;InField</title>
<path fill="none" stroke="black" d="M231.61,-242.33C234,-254.25 240.11,-262.58 249.95,-262.58 256.41,-262.58 261.26,-259 264.51,-253.16"/>
<polygon fill="black" stroke="black" points="267.8,-254.35 267.79,-243.76 261.19,-252.05 267.8,-254.35"/>
<text xml:space="preserve" text-anchor="middle" x="249.95" y="-266.53" font-family="Times,serif" font-size="14.00">printing</text>
</g>
<!-- Field -->
<g id="node3" class="node">
<title>Field</title>
<ellipse fill="none" stroke="black" cx="447.79" cy="-234.56" rx="36.09" ry="36.09"/>
<ellipse fill="none" stroke="black" cx="447.79" cy="-234.56" rx="40.09" ry="40.09"/>
<text xml:space="preserve" text-anchor="middle" x="447.79" y="-229.13" font-family="Arial" font-size="14.00">FIELD</text>
</g>
<!-- InField&#45;&gt;Field -->
<g id="edge4" class="edge">
<title>InField&#45;&gt;Field</title>
<path fill="none" stroke="black" d="M316.43,-195.28C343.14,-203.33 373.48,-212.47 398.17,-219.91"/>
<polygon fill="black" stroke="black" points="397.04,-223.23 407.63,-222.76 399.06,-216.52 397.04,-223.23"/>
<text xml:space="preserve" text-anchor="middle" x="353.85" y="-214.29" font-family="Times,serif" font-size="14.00">TAB</text>
</g>
<!-- EndField -->
<g id="node4" class="node">
<title>EndField</title>
<ellipse fill="none" stroke="black" cx="447.79" cy="-117.56" rx="55.06" ry="55.06"/>
<ellipse fill="none" stroke="black" cx="447.79" cy="-117.56" rx="59.06" ry="59.06"/>
<text xml:space="preserve" text-anchor="middle" x="447.79" y="-112.13" font-family="Arial" font-size="14.00">ENDFIELD</text>
</g>
<!-- InField&#45;&gt;EndField -->
<g id="edge5" class="edge">
<title>InField&#45;&gt;EndField</title>
<path fill="none" stroke="black" d="M316.43,-156.16C336.89,-150.1 359.47,-143.42 380.01,-137.33"/>
<polygon fill="black" stroke="black" points="380.82,-140.74 389.41,-134.55 378.83,-134.03 380.82,-140.74"/>
<text xml:space="preserve" text-anchor="middle" x="353.85" y="-153.98" font-family="Times,serif" font-size="14.00">\n, \r</text>
</g>
</g>
</svg>
